<?xml version="1.0" ?><svg width="32px" height="32px" viewBox="0 0 32 32" xmlns="http://www.w3.org/2000/svg"><defs><style>.cls-1{fill:#77acf1;}.cls-2{fill:#04009a;}</style></defs><g data-name="20. Delivery" id="_20._Delivery"><path class="cls-1" d="M10,1h6a0,0,0,0,1,0,0V6.13a.87.87,0,0,1-.87.87H10.87A.87.87,0,0,1,10,6.13V1A0,0,0,0,1,10,1Z"/><path class="cls-2" d="M11,26H3a3,3,0,0,1-3-3V3A3,3,0,0,1,3,0H23a3,3,0,0,1,3,3v8a1,1,0,0,1-2,0V3a1,1,0,0,0-1-1H3A1,1,0,0,0,2,3V23a1,1,0,0,0,1,1h8a1,1,0,0,1,0,2Z"/><path class="cls-2" d="M7,22H5a1,1,0,0,1,0-2H7a1,1,0,0,1,0,2Z"/><path class="cls-2" d="M23,32a9,9,0,1,1,9-9A9,9,0,0,1,23,32Zm0-16a7,7,0,1,0,7,7A7,7,0,0,0,23,16Z"/><path class="cls-1" d="M20,27a1,1,0,0,1-.71-.29,1,1,0,0,1,0-1.42L22,22.59V19a1,1,0,0,1,2,0v4a1,1,0,0,1-.29.71l-3,3A1,1,0,0,1,20,27Z"/></g></svg>