<svg id="Capa_1" enable-background="new 0 0 512 512" height="512" viewBox="0 0 512 512" width="512" xmlns="http://www.w3.org/2000/svg"><g><g><path d="m506.925 50.279h-148.711v84.779c0 1.682-1.363 3.045-3.045 3.045h-61.717c-1.682 0-3.045-1.363-3.045-3.045v-84.779h-148.712c-2.803 0-5.075 2.272-5.075 5.075v169.906c57.114 8.38 101.104 57.696 101.104 117.1 0 32.454-13.133 61.896-34.359 83.3h303.561c2.803 0 5.075-2.272 5.075-5.075v-365.231c-.001-2.803-2.273-5.075-5.076-5.075z" fill="#ea9b58"/><path d="m189.709 245.931v-190.577c0-2.803 2.272-5.075 5.075-5.075h-53.089c-2.803 0-5.076 2.272-5.076 5.075v168.89c19.656 2.847 37.758 10.483 53.09 21.687z" fill="#d88a55"/><g><path d="m290.406 50.279v84.779c0 1.682 1.363 3.045 3.045 3.045h61.717c1.682 0 3.045-1.363 3.045-3.045v-84.779z" fill="#fd4755"/></g><g><path d="m322.686 135.058v-84.779h-32.28v84.779c0 1.682 1.363 3.045 3.045 3.045h32.28c-1.682 0-3.045-1.363-3.045-3.045z" fill="#fb2b3a"/></g></g><g><g><path d="m472.919 360.949h-104.924c-4.142 0-7.5-3.358-7.5-7.5s3.358-7.5 7.5-7.5h104.924c4.142 0 7.5 3.358 7.5 7.5s-3.358 7.5-7.5 7.5z" fill="#ffbd86"/></g><g><path d="m472.274 391.524h-104.924c-4.142 0-7.5-3.358-7.5-7.5s3.358-7.5 7.5-7.5h104.924c4.142 0 7.5 3.358 7.5 7.5s-3.358 7.5-7.5 7.5z" fill="#ffbd86"/></g></g><g><g><circle cx="119.362" cy="342.359" fill="#01c0fa" r="119.362"/></g><g><path d="m22.457 342.359c0-40.491 24.966-75.255 60.31-89.723 16.005-14.054 35.802-23.894 57.658-27.785-6.837-1.217-13.876-1.853-21.063-1.853-65.922 0-119.362 53.44-119.362 119.361s53.44 119.362 119.362 119.362c7.187 0 14.226-.636 21.063-1.853-21.856-3.891-41.654-13.732-57.659-27.786-35.344-14.469-60.309-49.233-60.309-89.723z" fill="#08a9f1"/></g><g><ellipse cx="119.362" cy="342.359" fill="#fff" rx="89.405" ry="89.405" transform="matrix(.707 -.707 .707 .707 -207.124 184.676)"/></g><g><path d="m72.579 342.36c0-41.955 29.052-77.247 68.094-86.831-6.832-1.677-13.969-2.573-21.311-2.573-49.298 0-89.405 40.107-89.405 89.405s40.107 89.404 89.405 89.404c7.342 0 14.478-.896 21.311-2.573-39.042-9.585-68.094-44.877-68.094-86.832z" fill="#f2fbff"/></g><g><path d="m119.362 439.264c-53.434 0-96.905-43.471-96.905-96.904 0-53.434 43.471-96.905 96.905-96.905 53.433 0 96.904 43.471 96.904 96.905 0 53.432-43.471 96.904-96.904 96.904zm0-178.809c-45.163 0-81.905 36.742-81.905 81.905 0 45.162 36.742 81.904 81.905 81.904 45.162 0 81.904-36.742 81.904-81.904 0-45.163-36.742-81.905-81.904-81.905z" fill="#62dbfb"/></g><g><path d="m119.361 349.859c-1.237 0-2.477-.306-3.602-.922-2.403-1.316-3.898-3.838-3.898-6.578v-66.701c0-4.142 3.358-7.5 7.5-7.5s7.5 3.358 7.5 7.5v53.004l30.863-19.732c3.49-2.23 8.127-1.212 10.359 2.279 2.231 3.49 1.211 8.128-2.279 10.359l-42.403 27.11c-1.228.786-2.632 1.181-4.04 1.181z" fill="#465a61"/></g></g><g><path d="m180.778 105.797h-173.278c-4.142 0-7.5-3.358-7.5-7.5s3.358-7.5 7.5-7.5h173.278c4.142 0 7.5 3.358 7.5 7.5s-3.358 7.5-7.5 7.5z" fill="#fd4755"/></g><g><path d="m201.89 145.667h-163.722c-4.142 0-7.5-3.358-7.5-7.5s3.358-7.5 7.5-7.5h163.722c4.142 0 7.5 3.358 7.5 7.5s-3.358 7.5-7.5 7.5z" fill="#fd4755"/></g><g><path d="m222.191 185.536h-153.354c-4.142 0-7.5-3.358-7.5-7.5s3.358-7.5 7.5-7.5h153.354c4.142 0 7.5 3.358 7.5 7.5s-3.358 7.5-7.5 7.5z" fill="#fd4755"/></g><g><g><path d="m469.874 321.981h-99.479c-1.682 0-3.045-1.363-3.045-3.045v-129.932c0-1.682 1.363-3.045 3.045-3.045h99.479c1.682 0 3.045 1.363 3.045 3.045v129.932c0 1.681-1.363 3.045-3.045 3.045z" fill="#fff"/></g><g><path d="m397.802 318.936v-129.932c0-1.682 1.363-3.045 3.045-3.045h-30.453c-1.682 0-3.045 1.363-3.045 3.045v129.932c0 1.682 1.363 3.045 3.045 3.045h30.453c-1.681 0-3.045-1.364-3.045-3.045z" fill="#f2fbff"/></g><g><path d="m448.156 232.213-22.343-25.898c-1.425-1.652-3.498-2.601-5.679-2.601s-4.254.949-5.679 2.601l-22.343 25.898c-2.706 3.136-2.357 7.872.78 10.578 3.136 2.706 7.872 2.356 10.578-.78l9.164-10.622v36.602c0 4.142 3.358 7.5 7.5 7.5s7.5-3.358 7.5-7.5v-36.602l9.164 10.622c1.483 1.72 3.577 2.601 5.682 2.601 1.735 0 3.479-.599 4.896-1.821 3.137-2.706 3.485-7.442.78-10.578z" fill="#68ca44"/><g><path d="m444.363 304.227h-48.458c-4.142 0-7.5-3.358-7.5-7.5s3.358-7.5 7.5-7.5h48.458c4.142 0 7.5 3.358 7.5 7.5s-3.358 7.5-7.5 7.5z" fill="#68ca44"/></g></g></g></g></svg>