<svg id="Capa_1" enable-background="new 0 0 512 512" height="512" viewBox="0 0 512 512" width="512" xmlns="http://www.w3.org/2000/svg"><g><g><path clip-rule="evenodd" d="m142.553 113.432c0 62.645 50.787 113.432 113.432 113.432s113.432-50.787 113.432-113.432-50.786-113.432-113.431-113.432-113.433 50.787-113.433 113.432z" fill="#a4fcc4" fill-rule="evenodd"/></g><g><path d="m256.246 192.382c-5.523 0-10-4.448-10-9.971v-.058c0-5.523 4.477-10 10-10 5.522 0 10 4.477 10 10s-4.477 10.029-10 10.029z" fill="#020288"/></g><g><path d="m255.986 150.33c-5.523 0-10-4.477-10-10v-32.913c0-5.523 4.477-10 10-10 5.948 0 11.485-2.384 15.592-6.713 4.092-4.314 6.173-9.962 5.859-15.905-.574-11.182-9.79-20.101-20.981-20.319-10.913-.24-20.23 7.695-21.713 18.441-.152 1.084-.225 2.068-.225 3.028 0 5.523-4.477 10-10 10s-10-4.477-10-10c0-1.899.136-3.791.415-5.784 2.869-20.783 20.888-36.17 41.931-35.681 21.619.42 39.437 17.672 40.546 39.275.604 11.463-3.417 22.374-11.323 30.709-5.47 5.765-12.493 9.808-20.103 11.712v24.149c.001 5.524-4.475 10.001-9.998 10.001z" fill="#020288"/></g><g fill="#020288"><path d="m158.895 440.432h-43.672c-5.523 0-10 4.477-10 10s4.477 10 10 10h43.672c5.523 0 10-4.477 10-10s-4.478-10-10-10z"/><path d="m489.005 335.621-38.321-64.959c-1.799-3.048-5.074-4.919-8.613-4.919h-372.141c-3.539 0-6.814 1.871-8.613 4.919l-38.322 64.959c-1.824 3.091-1.851 6.923-.071 10.041 1.78 3.117 5.094 5.041 8.684 5.041h24.967v151.297c0 5.523 4.477 10 10 10h378.821c5.522 0 10-4.477 10-10v-151.298h24.995c3.59 0 6.903-1.924 8.684-5.041 1.78-3.117 1.753-6.949-.07-10.04zm-439.887-4.919 26.523-44.959h162.835l-26.523 44.959zm196.868 161.298h-169.411v-141.298h141.089c3.539 0 6.814-1.871 8.613-4.919l19.709-33.409zm189.41 0h-169.411v-179.626l19.709 33.409c1.799 3.048 5.074 4.919 8.613 4.919h141.089zm-135.377-161.298-26.522-44.959h162.863l26.522 44.959z"/></g></g></svg>