<?xml version="1.0" encoding="iso-8859-1"?>
<!-- Generator: Adobe Illustrator 19.0.0, SVG Export Plug-In . SVG Version: 6.00 Build 0)  -->
<svg version="1.1" id="Layer_1" xmlns="http://www.w3.org/2000/svg" xmlns:xlink="http://www.w3.org/1999/xlink" x="0px" y="0px"
	 viewBox="0 0 512 512" style="enable-background:new 0 0 512 512;" xml:space="preserve">
<g>
	<g>
		<path d="M0,26.256V144.41h26.256v341.333h459.487V144.41H512V26.256H0z M105.026,446.359H65.641v-39.385h13.128
			c14.478,0,26.256,11.779,26.256,26.256V446.359z M446.359,446.359h-39.385v-13.128c0-14.478,11.779-26.256,26.256-26.256h13.128
			V446.359z M446.359,367.59h-13.128c-36.194,0-65.641,29.447-65.641,65.641v13.128H144.41v-13.128
			c0-36.194-29.447-65.641-65.641-65.641H65.641V144.41h380.718V367.59z M472.615,105.026H39.385V65.641h433.231V105.026z"/>
	</g>
</g>
<g>
	<g>
		<path d="M157.538,196.923v118.154h196.923V196.923H157.538z M315.077,275.692H196.923v-39.385h118.154V275.692z"/>
	</g>
</g>
<g>
</g>
<g>
</g>
<g>
</g>
<g>
</g>
<g>
</g>
<g>
</g>
<g>
</g>
<g>
</g>
<g>
</g>
<g>
</g>
<g>
</g>
<g>
</g>
<g>
</g>
<g>
</g>
<g>
</g>
</svg>
