<svg id="Capa_1" enable-background="new 0 0 512 512" height="512" viewBox="0 0 512 512" width="512" xmlns="http://www.w3.org/2000/svg"><g><g><path d="m396.419 58.008c0-26.514-21.494-48.008-48.008-48.008h-184.823c-26.514 0-48.008 21.494-48.008 48.008v23.035h280.839z" fill="#a4fcc4"/><g><path d="m292.692 225.003v-84.15h-73.384v84.15h-38.313l75.005 107.635 75.005-107.635z" fill="#a4fcc4"/></g></g><g><g fill="#020288"><path d="m348.412 0h-184.824c-31.985 0-58.007 26.022-58.007 58.008v395.984c0 31.985 26.022 58.008 58.007 58.008h184.824c31.985 0 58.008-26.022 58.008-58.008v-395.984c0-31.986-26.023-58.008-58.008-58.008zm-222.832 58.008c0-20.958 17.051-38.008 38.008-38.008h184.824c20.958 0 38.008 17.05 38.008 38.008v363.992h-260.84zm260.84 395.984c0 20.958-17.05 38.008-38.008 38.008h-184.824c-20.958 0-38.007-17.05-38.007-38.008v-11.992h260.839z"/><path d="m244.127 477h23.745c5.522 0 10-4.478 10-10s-4.478-10-10-10h-23.745c-5.523 0-10 4.478-10 10s4.477 10 10 10z"/><path d="m195.787 56h70.596c5.522 0 10-4.478 10-10s-4.478-10-10-10h-70.596c-5.523 0-10 4.478-10 10s4.477 10 10 10z"/><path d="m308.552 56h7.66c5.522 0 10-4.478 10-10s-4.478-10-10-10h-7.66c-5.522 0-10 4.478-10 10s4.478 10 10 10z"/><path d="m347.493 326.062c-5.522 0-10 4.478-10 10v25.085h-162.986v-25.085c0-5.522-4.477-10-10-10s-10 4.478-10 10v35.085c0 5.522 4.477 10 10 10h182.986c5.522 0 10-4.478 10-10v-35.085c0-5.523-4.478-10-10-10z"/></g></g></g></svg>