<svg id="Capa_1" enable-background="new 0 0 512 512" height="512" viewBox="0 0 512 512" width="512" xmlns="http://www.w3.org/2000/svg"><path d="m497 241h-46.57c-7.31-95.59-83.84-172.12-179.43-179.43v-46.57c0-8.28-6.72-15-15-15s-15 6.72-15 15v46.57c-95.59 7.31-172.12 83.84-179.43 179.43h-46.57c-8.28 0-15 6.72-15 15s6.72 15 15 15h46.57c7.31 95.59 83.84 172.12 179.43 179.43v46.57c0 8.28 6.72 15 15 15s15-6.72 15-15v-46.57c95.59-7.31 172.12-83.84 179.43-179.43h46.57c8.28 0 15-6.72 15-15s-6.72-15-15-15zm-91 30h14.31c-7.16 79.04-70.27 142.15-149.31 149.31v-14.31c0-8.28-6.72-15-15-15s-15 6.72-15 15v14.31c-79.04-7.16-142.15-70.27-149.31-149.31h14.31c8.28 0 15-6.72 15-15s-6.72-15-15-15h-14.31c7.16-79.03 70.27-142.15 149.31-149.31v14.31c0 8.28 6.72 15 15 15s15-6.72 15-15v-14.31c79.04 7.16 142.15 70.28 149.31 149.31h-14.31c-8.28 0-15 6.72-15 15s6.72 15 15 15z" fill="#76e2f8"/><path d="m512 256c0 8.28-6.72 15-15 15h-46.57c-7.31 95.59-83.84 172.12-179.43 179.43v46.57c0 8.28-6.72 15-15 15v-121c8.28 0 15 6.72 15 15v14.31c79.04-7.16 142.15-70.27 149.31-149.31h-14.31c-8.28 0-15-6.72-15-15s6.72-15 15-15h14.31c-7.16-79.03-70.27-142.15-149.31-149.31v14.31c0 8.28-6.72 15-15 15v-121c8.28 0 15 6.72 15 15v46.57c95.59 7.31 172.12 83.84 179.43 179.43h46.57c8.28 0 15 6.72 15 15z" fill="#4bb9ec"/><path d="m46 121c-8.284 0-15-6.716-15-15v-60c0-8.284 6.716-15 15-15h60c8.284 0 15 6.716 15 15s-6.716 15-15 15h-45v45c0 8.284-6.716 15-15 15z" fill="#ff641a"/><path d="m106 481h-60c-8.284 0-15-6.716-15-15v-60c0-8.284 6.716-15 15-15s15 6.716 15 15v45h45c8.284 0 15 6.716 15 15s-6.716 15-15 15z" fill="#ff641a"/><path d="m466 481h-60c-8.284 0-15-6.716-15-15s6.716-15 15-15h45v-45c0-8.284 6.716-15 15-15s15 6.716 15 15v60c0 8.284-6.716 15-15 15z" fill="#f03800"/><path d="m466 121c-8.284 0-15-6.716-15-15v-45h-45c-8.284 0-15-6.716-15-15s6.716-15 15-15h60c8.284 0 15 6.716 15 15v60c0 8.284-6.716 15-15 15z" fill="#f03800"/><path d="m346 151h-45c-8.28 0-15 6.72-15 15v60h-60v-60c0-8.28-6.72-15-15-15h-45c-8.28 0-15 6.72-15 15v180c0 8.28 6.72 15 15 15h180c8.28 0 15-6.72 15-15v-180c0-8.28-6.72-15-15-15z" fill="#ffb64c"/><path d="m361 166v180c0 8.28-6.72 15-15 15h-90v-135h30v-60c0-8.28 6.72-15 15-15h45c8.28 0 15 6.72 15 15z" fill="#ff9100"/><path d="m301 151v75c0 8.28-6.72 15-15 15h-60c-8.28 0-15-6.72-15-15v-75z" fill="#fff7cc"/><path d="m301 151v75c0 8.28-6.72 15-15 15h-30v-90z" fill="#ffe6b3"/></svg>