<svg id="Capa_1" enable-background="new 0 0 511.963 511.963" height="512" viewBox="0 0 511.963 511.963" width="512" xmlns="http://www.w3.org/2000/svg"><g><g><path d="m154.137 154.117-71.167 71.167 25.136 25.136c18.092 18.092 42.372 27.856 67.234 27.856 8.9 0 17.875-1.251 26.667-3.819l50.177-14.657-14.657 50.177c-9.743 33.351-.532 69.332 24.036 93.9l22.545 22.545 71.167-71.167-33.353-64.985-66.71-35.078-30.322-68.174z" fill="#fff5f6"/><path d="m426.442 284.087-22.545-22.545c-24.569-24.568-60.549-33.777-93.9-24.036l-50.177 14.657 14.657-50.177c9.743-33.351.532-69.332-24.036-93.9l-25.136-25.136-71.167 71.167 201.138 201.138z" fill="#fee3c5"/></g><g><path d="m288.613 288.592-17.066 57.451c-7.534 25.792-3.982 53.832 9.748 76.929l70.839-70.859-19.263-41.16z" fill="#21c9b4"/></g><path d="m422.958 281.268c-22.956-13.581-51.13-16.984-77.295-9.342l-57.05 16.666 63.521 63.521z" fill="#17969b"/><path d="m344.155 344.134-88.943 88.943 21.21 21.21 88.942-88.943 1.032-21.21z" fill="#b6d2d7"/><path d="m336.339 295.27h125.784v29.995h-125.784z" fill="#90a0a7" transform="matrix(.707 -.707 .707 .707 -102.46 373.175)"/><g><path d="m57.696 235.561 21.21 21.21 88.943-88.943v-21.21h-21.21z" fill="#b6d2d7"/><path d="m138.823 97.754h125.784v29.995h-125.784z" fill="#90a0a7" transform="matrix(.707 -.707 .707 .707 -20.647 175.659)"/></g><g><g><path d="m415.766 415.745c-.006.006-.012.013-.018.019-38.629 38.629-89.881 61.947-144.315 65.658-5.16.352-10.307.526-15.449.526-48.59-.002-96.004-15.603-134.948-44.668l-17.941 24.038c44.14 32.943 97.852 50.625 152.892 50.625 5.817 0 11.65-.198 17.487-.596 61.668-4.203 119.728-30.616 163.484-74.374.006-.006.012-.013.018-.019l-1.536-19.53z" fill="#fff5f6"/><path d="m3.825 212.008c-8.839 50.939-2.289 102.66 18.942 149.573l27.327-12.367c-18.743-41.414-24.522-87.085-16.715-132.077 7.98-45.988 29.71-87.808 62.841-120.938l-3.345-21.21h-17.865c-37.526 37.526-62.142 84.906-71.185 137.019z" fill="#fff5f6"/><path d="m391.201 74.885 17.977-24.012c-48.81-36.542-109.355-54.392-170.503-50.27-61.738 4.165-119.862 30.582-163.665 74.386l21.21 21.21c38.67-38.67 89.979-61.992 144.475-65.668 53.984-3.637 107.436 12.11 150.506 44.354z" fill="#e3eaf2"/></g><path d="m507.801 301.871c9.096-50.154 3.218-101.288-16.999-147.874l-27.516 11.941c17.848 41.128 23.036 86.282 15.002 130.581-8.217 45.306-29.837 86.533-62.522 119.226l21.21 21.21c37.023-37.031 61.514-83.741 70.825-135.084z" fill="#e3eaf2"/></g></g><circle cx="88.78" cy="429.534" fill="#21c9b4" r="40.195"/><circle cx="421.171" cy="81.015" fill="#17969b" r="40.195"/></svg>