<?xml version="1.0" standalone="no"?>
<!DOCTYPE svg PUBLIC "-//W3C//DTD SVG 20010904//EN"
 "http://www.w3.org/TR/2001/REC-SVG-20010904/DTD/svg10.dtd">
<svg version="1.0" xmlns="http://www.w3.org/2000/svg"
 width="90.000000pt" height="90.000000pt" viewBox="0 0 90.000000 90.000000"
 preserveAspectRatio="xMidYMid meet">

<g transform="translate(0.000000,90.000000) scale(0.100000,-0.100000)"
fill="#000000" stroke="none">
<path d="M58 523 l-3 -308 -23 -3 c-21 -3 -22 -8 -22 -88 l0 -85 57 3 c55 3
58 4 61 31 l3 27 129 0 129 0 3 -28 c3 -26 5 -27 58 -27 53 0 55 1 60 30 3 17
9 29 13 28 4 -2 61 -3 126 -3 l120 0 3 -27 c3 -27 6 -28 61 -31 l57 -3 0 86
c0 78 -2 85 -20 85 -19 0 -20 8 -22 308 l-3 307 -392 3 -393 2 -2 -307z m152
241 l0 -45 48 3 47 3 3 43 3 42 65 0 64 0 0 -145 0 -145 -180 0 -180 0 0 145
0 145 65 0 65 0 0 -46z m70 11 c0 -28 -4 -35 -20 -35 -16 0 -20 7 -20 35 0 28
4 35 20 35 16 0 20 -7 20 -35z m318 -12 l3 -43 45 0 44 0 0 45 0 45 65 0 65 0
0 -145 0 -145 -180 0 -180 0 0 145 0 146 68 -3 67 -3 3 -42z m62 12 c0 -28 -4
-35 -20 -35 -16 0 -20 7 -20 35 0 28 4 35 20 35 16 0 20 -7 20 -35z m-448
-322 c3 -48 3 -48 42 -51 46 -4 56 7 56 61 l0 38 63 -3 62 -3 3 -142 3 -143
-181 0 -180 0 0 145 0 145 64 0 65 0 3 -47z m68 12 c0 -28 -4 -35 -20 -35 -16
0 -20 7 -20 35 0 28 4 35 20 35 16 0 20 -7 20 -35z m320 -15 l5 -45 40 0 40 0
3 48 3 47 65 0 64 0 0 -145 0 -145 -180 0 -180 0 0 138 c0 76 3 142 7 146 4 4
34 6 68 4 l60 -3 5 -45z m60 15 c0 -28 -4 -35 -20 -35 -16 0 -20 7 -20 35 0
28 4 35 20 35 16 0 20 -7 20 -35z m210 -335 l0 -60 -34 0 c-30 0 -35 3 -38 28
l-3 27 -152 3 -153 3 0 -31 c0 -28 -2 -30 -40 -30 -38 0 -40 2 -40 30 l0 31
-152 -3 -153 -3 0 -27 c1 -26 -2 -28 -37 -28 l-38 0 0 60 0 60 420 0 420 -1 0
-59z"/>
</g>
</svg>
