<?xml version="1.0" encoding="UTF-8"?>
<svg id="Layer_1" data-name="Layer 1" xmlns="http://www.w3.org/2000/svg" viewBox="0 0 978.76 951.17">
  <path d="m0,230.56c15.5-14.61,35.53-21.13,54.3-29.58,115.78-52.11,231.71-103.87,347.68-155.57,32.43-14.46,65.21-28.14,97.67-42.51,8.78-3.89,16.29-3.99,25.29.44,83.53,41.17,167.41,81.62,250.97,122.74,58.53,28.8,116.73,58.27,175.03,87.54,7.27,3.65,14.42,7.6,21.23,12.02,2.29,1.49,4.58,4.75,4.8,7.37,1.02,12.42,1.81,24.91,1.8,37.37-.18,139.35-.51,278.7-.86,418.05-.02,8.65-.66,17.3-.96,25.95-.21,5.95-2.55,10.15-8.21,12.99-20.18,10.13-40,20.97-60.25,30.97-122.95,60.71-245.98,121.28-369.02,181.8-7.88,3.88-16,7.37-24.27,10.28-3.09,1.09-7.39,1.03-10.37-.26-50.1-21.7-100.24-43.32-150.06-65.66-101.77-45.63-203.39-91.61-305-137.6-14.05-6.36-27.72-13.57-41.58-20.37-4.25-2.08-6.45-5.06-6.45-10.16-.02-10.97-.6-21.95-1.02-32.92-.08-2.12-.46-4.24-.7-6.36,0-148.84,0-297.69,0-446.53Zm487.13,668.3c0-15.26.01-29.06,0-42.87-.16-126.85-.35-253.69-.37-380.54,0-4.03-2.11-4.97-4.92-6.23-135.35-60.76-270.68-121.55-406.01-182.33-11.46-5.15-22.95-10.22-35.35-15.74,0,7.31,0,13.77,0,20.24-.14,134.34-.27,268.68-.52,403.02,0,3.49,1.34,4.82,4.25,6.12,137.49,61.63,274.95,123.34,412.42,185.01,9.64,4.32,19.36,8.47,30.5,13.33Zm43.14-.3c2.59-1.19,4.21-1.9,5.8-2.68,28.06-13.66,56.13-27.29,84.16-41.02,103.61-50.73,207.19-101.52,310.84-152.17,3.78-1.85,5.28-3.88,5.18-8.22-.3-13.31-.04-26.63-.04-39.95-.03-124.68-.07-249.37-.11-374.05,0-2.12,0-4.25,0-7.23-6.65,3.15-12.64,5.89-18.55,8.79-127.45,62.47-254.88,124.96-382.35,187.37-3.39,1.66-4.71,3.53-4.71,7.5.03,120.02-.11,240.05-.21,360.07-.02,20.13,0,40.27,0,61.59Zm155.82-549.42c-2.79-1.44-4.67-2.47-6.61-3.39-82.88-39.43-165.72-78.94-248.66-118.23-52.64-24.94-105.46-49.51-158.16-74.33-3.51-1.65-6.59-2.19-10.32-.5-61.68,27.9-123.4,55.71-185.1,83.55-1.25.56-2.39,1.35-4.32,2.45,5.29,2.53,9.7,4.75,14.2,6.79,139.59,63.02,279.19,126.02,418.73,189.14,3.11,1.41,5.28.7,7.87-.58,46.01-22.67,92.03-45.32,138.05-67.98,11.14-5.49,22.28-10.98,34.33-16.91ZM318.44,127.8c3.71,1.98,6.27,3.48,8.93,4.75,55.99,26.79,111.92,53.72,168.02,80.3,77.24,36.6,154.62,72.91,231.9,109.43,4.03,1.9,7.44,2.34,11.67.25,55.52-27.41,111.13-54.65,166.7-81.95,1.37-.67,2.63-1.56,4.36-2.6-2.08-1.08-3.53-1.87-5.01-2.6-28.25-14.01-56.46-28.09-84.76-41.99-100.57-49.41-201.2-98.69-301.68-148.27-5.74-2.83-10.16-2.53-15.64-.07-59.81,26.81-119.7,53.45-179.56,80.14-1.3.58-2.52,1.34-4.91,2.62Z"/>
  <path d="m91.77,464.86c.07-10.88,5.87-18.67,15.5-20.76,2.67-.58,6.01-.09,8.54,1.04,28.03,12.49,56.01,25.09,83.89,37.9,10.24,4.71,20.27,9.9,30.25,15.15,7.73,4.06,11.25,14.04,8.66,23.34-1.84,6.6-11.15,13.8-18.17,13.52-2.72-.11-5.55-1.11-8.06-2.29-36.46-17.17-72.88-34.43-109.3-51.7-7.17-3.4-11.77-8.59-11.33-16.2Z"/>
  <path d="m91.9,382.06c-.01-12.86,10.38-21.57,22.54-17.68,11.95,3.83,23.64,8.72,35.04,14.02,26.02,12.1,51.77,24.77,77.68,37.1,5.08,2.42,8.56,6,10.71,11.19,3.09,7.47,2.69,14.27-3.2,20.22-5.86,5.92-12.47,8.34-20.75,4.98-38.45-15.62-76.02-33.13-112.57-52.79-7.69-4.14-9.44-7.83-9.45-17.05Z"/>
</svg>