<?xml version="1.0" encoding="UTF-8"?>
<svg id="Layer_1" data-name="Layer 1" xmlns="http://www.w3.org/2000/svg" viewBox="0 0 978.33 978.51">
  <path d="m978.33,758.61c-1.48,7.71-2.65,15.48-4.48,23.1-23.3,97.04-81.8,162.33-178.48,188.27-127.02,34.09-255.62-36.82-294.39-162.71-29.8-96.75-6.66-183.14,67.14-252.59,77.5-72.94,186.53-86.73,280.35-36.62,73.15,39.07,115.34,101.54,127.85,183.76.37,2.41,1.34,4.73,2.03,7.1v49.68Zm-61.18-23.49c1.77-99.56-80.79-183.25-182.28-184.77-99.37-1.48-183.09,79.9-184.22,181.58-1.11,100.31,77.35,183.81,181.51,184.91,101.03,1.07,182.68-78.32,184.99-181.73Z"/>
  <path d="m160.49,0c17.08,7.12,23.61,19.77,23.16,38.31-.89,37.21-.23,74.45-.28,111.69-.03,20.01-12.7,33.59-31,33.39-17.74-.19-30.02-13.76-30.05-33.39-.05-37.23.61-74.48-.28-111.69-.45-18.54,6.08-31.19,23.16-38.31h15.29Z"/>
  <path d="m649.66,0c17.08,7.12,23.61,19.77,23.16,38.31-.89,37.21-.23,74.45-.28,111.69-.03,20.01-12.7,33.59-31,33.39-17.74-.19-30.02-13.76-30.05-33.39-.05-37.23.61-74.48-.28-111.69-.45-18.54,6.08-31.19,23.16-38.31h15.29Z"/>
  <path d="m427.51,733.8v61.08h-10.17c-115.26,0-230.53.02-345.79,0-43.7,0-71.51-27.8-71.52-71.59-.03-176.4-.03-352.8,0-529.2,0-43.92,27.69-71.69,71.33-71.75,6.33,0,12.66,0,19.51,0,.75,13.72.6,27.04,2.37,40.1,3.99,29.45,30.09,51.52,59.63,51.49,29.58-.03,55.58-22.07,59.59-51.54,1.74-12.82,1.58-25.9,2.31-39.46h366.77c0,11.99-1.23,23.83.23,35.33,4.27,33.56,31.15,57.23,61.77,55.62,33.98-1.79,58.39-27.25,59.6-62.41.32-9.21.05-18.43.05-27.57,56.31-10.94,92.08,23.69,91.8,68.85-.47,75.14-.13,150.29-.13,225.43v9.15h-60.76v-120.88H61.09c0,3.1,0,6.46,0,9.82,0,134.37,0,268.74,0,403.1,0,13.7.76,14.43,14.71,14.43,113.35,0,226.71,0,340.06,0h11.64Z"/>
  <path d="m122.72,488.45v-121.01h121.04v121.01h-121.04Z"/>
  <path d="m427.36,488.95h-120.83v-121.34h120.83v121.34Z"/>
  <path d="m610.72,488.73h-121.02v-121.04h121.02v121.04Z"/>
  <path d="m122.98,550.79h121.04v121.04h-121.04v-121.04Z"/>
  <path d="m427.3,672.15h-121.05v-121.04h121.05v121.04Z"/>
  <path d="m733.7,733.81c31.37,0,61.57-.1,91.76.05,14.13.07,25.02,8.36,29.24,21.63,3.85,12.09,0,25.75-10.86,32.96-5.26,3.49-12.23,6.07-18.46,6.16-40.76.54-81.52.4-122.28.22-17.29-.08-30.31-12.93-30.39-30.11-.2-41.08-.21-82.16.01-123.24.09-17.08,13.7-30,30.6-29.94,16.86.06,30.2,13.05,30.32,30.23.22,30.22.06,60.44.06,92.05Z"/>
</svg>