<?xml version="1.0" encoding="UTF-8"?>
<svg id="Layer_1" data-name="Layer 1" xmlns="http://www.w3.org/2000/svg" viewBox="0 0 978.33 979.12">
  <path d="m978.33,758.61c-2.38,11.08-4.32,22.27-7.22,33.21-23.01,86.86-76.99,146.62-162.06,174.17-87,28.18-167.16,10.6-236.93-49.06-41.23-35.26-67.36-80.36-77.76-133.47-15.44-78.81,3.03-149.57,55.52-210.62,35.35-41.11,80.09-67.57,133.22-78.2,79.19-15.85,150.18,2.59,211.54,55.26,41.14,35.31,66.8,80.23,78.38,133.17,1.88,8.59,3.54,17.23,5.3,25.84v49.68Zm-61.18-26.25c-2.41-103.93-84.51-182.63-185.05-181.73-101.51.91-182.99,84.49-181.79,184.06,1.23,101.33,84.87,184.28,184.59,182.41,103.76-1.94,181.73-83.96,182.24-184.75Z"/>
  <path d="m160.49,0c17.07,7.13,23.6,19.77,23.16,38.31-.89,37.21-.23,74.45-.28,111.68-.03,20.01-12.71,33.59-31,33.39-17.73-.19-30.02-13.77-30.05-33.39-.05-37.23.61-74.47-.28-111.68-.44-18.54,6.09-31.19,23.16-38.31h15.29Z"/>
  <path d="m649.66,0c17.07,7.13,23.6,19.77,23.16,38.31-.89,37.21-.23,74.45-.28,111.68-.03,20.01-12.71,33.59-31,33.39-17.73-.19-30.02-13.77-30.05-33.39-.05-37.23.61-74.47-.28-111.68-.44-18.54,6.09-31.18,23.16-38.31h15.29Z"/>
  <path d="m427.51,733.8v61.08h-10.16c-115.26,0-230.53.02-345.8,0-43.7,0-71.52-27.81-71.53-71.6C0,546.87,0,370.47.02,194.07c0-43.92,27.7-71.68,71.35-71.74,6.33,0,12.66,0,19.5,0,.75,13.73.58,27.06,2.36,40.13,4.02,29.47,30.1,51.52,59.64,51.48,29.58-.04,55.55-22.04,59.58-51.55,1.75-12.82,1.57-25.9,2.3-39.46h366.76c0,11.99-1.23,23.83.23,35.32,4.25,33.55,31.13,57.22,61.77,55.63,33.95-1.76,58.43-27.28,59.62-62.39.31-9.21.05-18.44.05-27.58,55.46-10.77,91.76,22.6,91.7,67.87-.11,76.1-.03,152.2-.03,228.3,0,2.2,0,4.39,0,7.24h-60.75v-120.88H61.09c0,3.1,0,6.46,0,9.81,0,134.37,0,268.74,0,403.11,0,13.71.74,14.43,14.7,14.43,113.35,0,226.71,0,340.06,0h11.65Z"/>
  <path d="m122.73,488.63v-121.04h121.21v121.04h-121.21Z"/>
  <path d="m306.11,488.4v-120.91h121.38v120.91h-121.38Z"/>
  <path d="m610.99,367.43v121.04h-121.21v-121.04h121.21Z"/>
  <path d="m122.74,671.91v-121.06h121.04v121.06h-121.04Z"/>
  <path d="m306.23,550.75h121.09v121.26h-121.09v-121.26Z"/>
  <path d="m713.38,783.67c2.45-3.56,4.05-6.86,6.49-9.32,32.78-32.95,65.64-65.83,98.57-98.63,9.21-9.17,19.98-13.36,32.97-8.9,11.99,4.12,18.78,12.71,20.75,25.01,1.56,9.76-1.6,18.43-8.44,25.3-43.34,43.55-86.68,87.11-130.38,130.3-12.27,12.13-29.7,12.3-42.13.2-29.64-28.87-58.92-58.13-87.75-87.82-12.32-12.69-11.19-31.05.97-42.81,11.89-11.51,30.55-11.68,43.02.52,21.58,21.13,42.68,42.75,65.94,66.14Z"/>
</svg>