<?xml version="1.0" encoding="UTF-8"?>
<svg id="Layer_1" data-name="Layer 1" xmlns="http://www.w3.org/2000/svg" viewBox="0 0 978.33 935.17">
  <path d="m957.52,0c0,18.33.83,36.05-.16,53.67-3.02,53.92,5.66,106.61,13.69,159.62,5.23,34.54,7.65,69.85,7.24,104.77-.22,18.39-9.27,36.66-14.23,55.01-2.3,8.5-6.24,17.05-6.26,25.59-.37,174.31-.28,348.63-.28,522.94v13.57H22.45v-13.59c0-175.4.03-350.8-.14-526.2,0-5.54-.83-11.82-3.5-16.48C3.7,352.5-2.29,323.71.78,294.2c5.49-52.81,13.54-105.36,20.46-158.03.61-4.64,1.14-9.34,1.16-14.01.09-36.6.05-73.2.05-109.81,0-3.9,0-7.8,0-12.35h935.07Zm-311.98,395.39c-1.15.77-2.35,1.53-3.51,2.35-48.03,33.76-97.62,34.29-146.27,1.11-5.01-3.42-7.94-2.54-12.24.62-20.37,14.98-43.22,22.86-68.62,23.48-30.27.74-56.72-9.31-80.34-27.69-52.31,37.44-104.54,37.45-156.76-.03-32.68,25.49-69.05,33.64-109.79,23.56v471.01h533.51v-399.38h245.01v399.38h65.14v-469.38c-19.96,0-39.56,2.94-57.76-.82-18.5-3.83-35.64-14.27-54.59-22.33-49.88,35.44-101.78,35.19-153.77-1.88Zm1.35,494.52h153.79v-355.02h-153.79v355.02ZM68.09,44.92v65.18h843.62V44.92H68.09Zm133.43,111.31c-.32,1.82-.77,3.18-.77,4.54-.05,62.62-.17,125.24.2,187.85.02,3.87,3.12,8.73,6.26,11.4,27.84,23.69,68.36,23.87,96.97,1.2,5.6-4.44,7.77-9.26,7.74-16.51-.29-59.36-.16-118.72-.19-178.08,0-3.45-.37-6.91-.57-10.4h-109.65Zm467.84-.28c-.52,1.91-1.04,2.91-1.04,3.91-.06,62.98-.2,125.96.18,188.94.02,3.84,3.29,8.63,6.45,11.32,27.55,23.4,67.18,23.75,96.12,1.68,6.02-4.59,8.44-9.56,8.39-17.27-.32-59-.17-118-.2-176.99,0-3.8-.32-7.59-.5-11.58h-109.4Zm-311.69.35c-.36,2.14-.7,3.2-.7,4.27-.05,62.61-.2,125.22.21,187.83.03,4.17,3.41,9.41,6.81,12.3,26.52,22.51,66.66,22.93,94.35,1.77,6.51-4.97,9.59-10.43,9.53-19.12-.42-58.63-.21-117.26-.24-175.88,0-3.53-.34-7.05-.55-11.16h-109.41Zm156-.18c-.68,1.94-1.11,2.61-1.12,3.27-.1,62.97-.28,125.93.04,188.9.02,3.92,3.18,8.77,6.33,11.58,25.93,23.18,66.45,24.01,95.16,2.67,6.27-4.66,9.27-9.74,9.22-18.02-.38-58.99-.19-117.98-.23-176.97,0-3.79-.4-7.57-.61-11.44h-108.78Zm-449.23-.09c-.87,2.58-2.04,4.88-2.41,7.3-5.24,35-11.26,69.92-15.22,105.06-2.87,25.44-4.14,51.25,5.38,76.07,6.52,16.99,17.55,29.55,35.97,32.52,21.16,3.41,40.88-1.35,58.38-14.45,6.24-4.67,9.23-9.75,9.17-18.03-.39-58.99-.19-117.99-.23-176.98,0-3.78-.39-7.57-.6-11.49h-90.45Zm852.46.39h-91.5c-.4,1.75-.84,2.78-.84,3.82-.06,62.97-.11,125.94,0,188.91,0,2.63.89,6.05,2.66,7.75,18.52,17.8,41.07,24.45,65.89,19.77,21.69-4.09,31.72-21.09,37.51-40.7,1.92-6.52,3.46-13.54,3.18-20.25-1.16-27.75-2.1-55.56-5.01-83.16-2.69-25.42-7.8-50.58-11.89-76.14Z"/>
  <path d="m134.07,490.24h399.99v332.94H134.07v-332.94Zm355.35,288.5v-243.84H179.32v243.84h310.1Z"/>
</svg>