<?xml version="1.0" encoding="UTF-8"?>
<svg id="Layer_1" data-name="Layer 1" xmlns="http://www.w3.org/2000/svg" viewBox="0 0 554.38 841.89">
  <path d="m103.23,272.62c6.6,2.92,12.62,5.6,18.66,8.24,13.7,5.99,27.45,11.89,41.1,18.01,2.84,1.27,4.79,1.38,7.41-.75,53.15-43.17,106.4-86.23,159.61-129.33.64-.52,1.15-1.19,1.29-2.47-2.79,1.26-5.6,2.49-8.38,3.78-29.3,13.64-58.6,27.3-87.91,40.92-2,.93-4.05,1.86-6.18,2.37-4.34,1.05-7.75-.74-9.67-4.56-1.91-3.81-1.36-7.67,2.02-10.55,1.65-1.41,3.74-2.36,5.74-3.29,54.75-25.51,109.5-50.99,164.27-76.46,10.72-4.99,16.7-.62,15.97,11.32-2.24,36.76-4.33,73.53-6.54,110.29-2.45,40.83-4.97,81.65-7.41,122.48-.59,9.79-1,19.59-1.5,29.39-.81,15.98-10.32,21.81-24.71,15.1-34.31-16.01-68.61-32.05-102.92-48.07-1.98-.92-4-1.77-6.33-2.79-1.33,1.96-2.58,3.75-3.78,5.58-18.05,27.54-36.05,55.1-54.19,82.57-1.57,2.37-3.66,4.94-6.13,6.07-5.7,2.62-11.29-1.38-12.53-8.58-2.34-13.65-4.54-27.33-6.81-41-4.45-26.79-8.83-53.59-13.53-80.33-.34-1.93-2.77-4.14-4.76-5.03-21.91-9.8-43.97-19.28-65.91-29.02-9.59-4.26-13.05-13.34-7.95-21.15,1.72-2.64,4.54-5.03,7.41-6.38,31.24-14.72,62.58-29.23,93.93-43.73,6.34-2.93,11.5-1.54,13.78,3.36,2.43,5.22.17,9.93-6.6,13.09-27.27,12.75-54.58,25.42-81.88,38.13-1.66.77-3.28,1.64-5.58,2.8Zm270.39,117.71c4.55-77.42,9.03-153.71,13.51-230.01-.32-.13-.63-.26-.95-.39-39.39,60.16-78.78,120.31-118.48,180.93,35.52,16.59,70.24,32.81,105.91,49.47Zm-61.63-182.05c-.25-.23-.49-.46-.74-.69-.47.24-1,.4-1.4.72-43.01,34.8-86.03,69.59-128.92,104.52-1.34,1.09-2.25,3.84-1.97,5.6,3.85,24.26,7.94,48.48,12.02,72.7.15.92.84,1.75,1.63,3.3,5.13-21.62,9.93-42.48,15.12-63.24,1.04-4.16,2.72-8.65,5.47-11.8,18.48-21.21,37.33-42.1,56.05-63.1,14.26-16,28.51-32.01,42.76-48.02Zm-60.76,124.85c22.99-35.1,45.81-69.93,68.62-104.76-.33-.24-.66-.48-.98-.72-28.66,32.16-57.32,64.32-86.31,96.84,6.75,3.13,12.58,5.83,18.66,8.64Zm-39.37,58.22c.31.14.63.28.94.42,9.36-14.28,18.72-28.55,28.41-43.34-5.88-2.74-11.26-5.25-17.22-8.03-4.16,17.46-8.15,34.2-12.13,50.94Z"/>
  <path d="m277.19,0C124.1,0,0,124.1,0,277.19s277.19,564.7,277.19,564.7c0,0,277.19-411.61,277.19-564.7S430.27,0,277.19,0Zm0,522.26c-135.35,0-245.07-109.72-245.07-245.07S141.84,32.11,277.19,32.11s245.08,109.72,245.08,245.08-109.72,245.07-245.08,245.07Z"/>
</svg>