<?xml version="1.0" encoding="UTF-8"?>
<svg id="Layer_1" data-name="Layer 1" xmlns="http://www.w3.org/2000/svg" viewBox="0 0 591.72 898.61">
  <path d="m279.43,90.01c11.19,0,22.38,0,33.56,0,.35.29.7.59,1.06.86,36.4,27.43,72.79,54.85,109.19,82.28,16.65,12.55,33.31,25.09,49.96,37.63v233.91H118.52c0-77.87,0-155.72,0-233.56.48-.32.98-.61,1.43-.95,17.91-13.49,35.81-26.98,53.71-40.47,35.25-26.57,70.51-53.13,105.76-79.69Zm176.2,132.99c-1.03-.77-1.85-1.4-2.67-2.02-35.35-26.65-70.71-53.29-106.06-79.94-14.22-10.72-28.46-21.43-42.67-32.18-.92-.7-1.83-1.04-3-1.02-3.23.06-6.46,0-9.69.03-2.49.01-1.76-.25-3.77,1.26-34.9,26.29-69.79,52.59-104.69,78.89-15.01,11.31-30.02,22.62-45.02,33.94-.41.31-.78.65-1.19,1,.17.2.25.35.38.44,41.06,30.95,82.13,61.89,123.2,92.83.13.1.31.13.57.23.52-.38,1.08-.78,1.63-1.19,5.11-3.85,10.23-7.68,15.31-11.57.93-.71,1.86-.99,3.01-.98,10.15.03,20.3.03,30.44,0,1.16,0,2.08.32,3,1.02,5.17,3.96,10.39,7.86,15.59,11.78.45.34.93.65,1.47,1.02,41.35-31.16,82.64-62.27,124.14-93.55Zm-12.45,203.75l.15-.32c-.43-.35-.85-.71-1.29-1.05-11.14-8.4-22.28-16.8-33.42-25.2-31.63-23.84-63.25-47.67-94.88-71.51-3.31-2.5-6.63-4.99-9.94-7.5-.56-.42-1.1-.74-1.87-.74-3.86.04-7.73.03-11.59,0-.61,0-1.12.16-1.58.55-.35.3-.73.56-1.1.84-27.39,20.65-54.78,41.3-82.17,61.94-18.41,13.88-36.83,27.75-55.24,41.63-.44.33-.86.7-1.63,1.34h294.56Zm-96.77-99.06c.29.57.82.82,1.27,1.16,30.75,23.18,61.5,46.36,92.26,69.53,4.83,3.64,9.67,7.29,14.51,10.92.29.22.54.64,1.14.36,0-.41,0-.87,0-1.32-.01-54.15-.03-108.29-.04-162.44,0-.06-.02-.12-.05-.16-.03-.04-.1-.05-.15-.08-.11.02-.24,0-.32.05-36.1,27.19-72.2,54.39-108.29,81.59-.13.09-.21.25-.32.39Zm-100.34-.03c-.68-.52-1.17-.91-1.68-1.29-31.12-23.45-62.24-46.91-93.37-70.36-4.37-3.3-8.75-6.59-13.13-9.88-.29-.21-.53-.66-1.14-.32v2c0,53.22,0,106.45,0,159.67,0,.52,0,1.04,0,1.56,0,.27-.03.59.49.74,35.96-27.1,72.01-54.25,108.04-81.41.22-.17.41-.37.77-.71Z"/>
  <path d="m295.86,0C132.46,0,0,132.46,0,295.86s295.86,602.74,295.86,602.74c0,0,295.86-439.34,295.86-602.74S459.26,0,295.86,0Zm0,557.45c-144.47,0-261.58-117.11-261.58-261.58S151.39,34.28,295.86,34.28s261.59,117.12,261.59,261.59-117.12,261.58-261.59,261.58Z"/>
</svg>