<?xml version="1.0" encoding="UTF-8"?>
<svg id="Layer_1" data-name="Layer 1" xmlns="http://www.w3.org/2000/svg" viewBox="0 0 591.72 898.61">
  <path d="m110.18,290.98c7.05,3.12,13.47,5.98,19.91,8.8,14.63,6.4,29.3,12.69,43.87,19.22,3.03,1.36,5.12,1.47,7.91-.8,56.73-46.08,113.56-92.04,170.37-138.04.68-.55,1.23-1.28,1.38-2.64-2.98,1.34-5.98,2.66-8.95,4.04-31.28,14.56-62.55,29.13-93.84,43.67-2.13.99-4.32,1.98-6.59,2.53-4.63,1.12-8.28-.79-10.32-4.87-2.04-4.07-1.45-8.19,2.16-11.26,1.76-1.5,3.99-2.52,6.12-3.52,58.43-27.22,116.88-54.42,175.33-81.61,11.44-5.32,17.82-.66,17.05,12.08-2.39,39.24-4.63,78.48-6.98,117.72-2.61,43.58-5.3,87.15-7.91,130.73-.63,10.45-1.07,20.91-1.6,31.37-.87,17.05-11.02,23.28-26.37,16.11-36.62-17.09-73.23-34.21-109.85-51.31-2.11-.99-4.27-1.89-6.75-2.98-1.42,2.09-2.75,4-4.03,5.96-19.26,29.39-38.48,58.81-57.84,88.14-1.67,2.53-3.91,5.27-6.54,6.48-6.09,2.8-12.05-1.48-13.37-9.16-2.5-14.57-4.85-29.17-7.27-43.76-4.75-28.59-9.42-57.2-14.44-85.74-.36-2.06-2.96-4.41-5.08-5.36-23.39-10.46-46.93-20.58-70.35-30.97-10.24-4.54-13.93-14.24-8.49-22.58,1.84-2.82,4.85-5.37,7.91-6.81,33.35-15.71,66.8-31.2,100.26-46.68,6.76-3.13,12.27-1.65,14.71,3.58,2.6,5.57.18,10.59-7.04,13.97-29.11,13.6-58.26,27.13-87.39,40.7-1.77.83-3.5,1.75-5.95,2.98Zm288.61,125.64c4.86-82.63,9.64-164.07,14.42-245.5-.34-.14-.68-.28-1.01-.42-42.05,64.21-84.09,128.42-126.46,193.12,37.91,17.71,74.97,35.02,113.05,52.8Zm-65.78-194.31c-.26-.25-.53-.49-.79-.74-.5.25-1.07.42-1.49.77-45.91,37.14-91.82,74.27-137.61,111.56-1.43,1.16-2.4,4.1-2.11,5.97,4.11,25.89,8.47,51.75,12.83,77.6.17.98.9,1.86,1.73,3.53,5.47-23.08,10.6-45.34,16.13-67.5,1.11-4.44,2.9-9.23,5.83-12.6,19.72-22.64,39.84-44.93,59.82-67.35,15.22-17.08,30.43-34.17,45.64-51.25Zm-64.85,133.26c24.54-37.46,48.89-74.64,73.25-111.82-.35-.26-.7-.51-1.05-.77-30.59,34.33-61.19,68.65-92.12,103.36,7.2,3.34,13.43,6.22,19.92,9.23Zm-42.02,62.14c.34.15.67.3,1.01.45,9.99-15.24,19.98-30.48,30.32-46.26-6.28-2.93-12.02-5.6-18.38-8.57-4.44,18.64-8.69,36.51-12.95,54.38Z"/>
  <path d="m295.86,0C132.46,0,0,132.46,0,295.86s295.86,602.74,295.86,602.74c0,0,295.86-439.34,295.86-602.74S459.26,0,295.86,0Zm0,557.45c-144.47,0-261.58-117.11-261.58-261.58S151.39,34.28,295.86,34.28s261.59,117.12,261.59,261.59-117.12,261.58-261.59,261.58Z"/>
</svg>