<?xml version="1.0" encoding="UTF-8"?>
<svg id="Layer_1" data-name="Layer 1" xmlns="http://www.w3.org/2000/svg" viewBox="0 0 1671 935.17">
  <path d="m1100.14,786.08h-348.87c-8.74,49.04-31.65,89.4-72.77,118.23-29.75,20.86-62.97,31.02-99.31,30.85-43.21-.19-81.19-14.44-113.69-42.89-32.08-28.09-50.33-63.89-57.13-106.73-6.14,0-11.29,0-16.45,0-48.58,0-97.16.11-145.74-.05-30.18-.1-45.1-19.5-36.42-47.87,21.56-70.49,43.39-140.9,65.33-211.28,6.97-22.34,23.83-32.52,42.97-26.77,19.84,5.96,28.05,23.95,20.96,47.16-15.57,50.95-31.41,101.81-47.09,152.72-1.65,5.36-3.04,10.81-4.79,17.05,3.88.71,6.54,1.6,9.2,1.61,35.24.1,70.49-.09,105.73.22,7.76.07,11.62-2.33,14.53-10.01,27.52-72.77,89.26-116.67,163.09-116.63,73.94.04,135.82,44.14,162.96,116.76,2.86,7.66,6.7,9.89,14.47,9.89,190.03-.18-130.04-.17,59.99-.02,7.55,0,12.1-1.5,14.56-9.65,63.63-210.8,130.66-420.6,184.61-634.22.45-1.77.6-3.61,1.25-7.7-5.88,0-10.86,0-15.84,0-346.24,0-182.39.06-528.63-.28-11.62-.01-17.52,3.02-19.92,14.48-1.64,7.84-4.63,15.54-8.03,22.83-7.36,15.78-24.67,23.09-40.59,17.81-16.33-5.42-26.84-21.26-22.31-38.09,5.92-21.98,13.58-43.57,21.76-64.84,4.39-11.4,14.52-17.36,26.91-18.37,5.21-.43,10.47-.26,15.71-.26,371.01,0,231.92,0,602.92,0,3.81,0,7.62-.09,11.43.05,24.98.96,39.26,19.3,33.32,43.61-4.83,19.74-10.52,39.27-16.46,61.23,7.42,0,12.98,0,18.54,0,83.35,0,106.62.62,189.95-.38,23.95-.29,38.48,8.4,50.27,29.22,50.16,88.61,101.48,176.58,152.99,264.42,4.98,8.49,13.08,16.34,21.58,21.39,45.42,26.99,91.45,52.95,137.21,79.37,21.95,12.67,26.64,24.45,19.63,48.52-20.08,68.96-40.18,137.91-60.3,206.85-6.9,23.63-16.71,31.16-41.03,31.21-37.15.08-74.3.21-111.44-.11-8.25-.07-12.4,1.47-14.42,10.86-17.96,83.14-85.92,138.81-168.59,138.9-83.28.1-151.23-55.73-169.85-139.52-.62-2.78-1.28-5.54-2.21-9.57Zm-185.8-69.16c2.55.5,4.35,1.16,6.15,1.17,78.55.07,97.02-.06,175.57.3,9.1.04,10.75-5.26,13.15-11.72,26.18-70.46,89.41-115.02,162.88-114.97,73.28.05,136.69,44.8,162.43,115.45,3.26,8.95,7.74,11.36,16.56,11.22,28.08-.45,56.18-.6,84.25.07,9.91.24,14.08-3.02,16.76-12.53,13.79-48.96,28-97.81,42.8-146.48,3.03-9.95.1-14.11-8.26-18.81-41.06-23.09-82.07-46.31-122.35-70.7-10.05-6.09-19.61-15.4-25.55-25.49-50.68-86.07-100.65-172.55-150.26-259.24-5.8-10.13-12.24-13.37-23.57-13.3-80.93.46-101.78.53-182.71-.05-12.5-.09-18.33,3.1-21.81,15.71-47.73,172.73-96.01,345.32-144.09,517.95-.98,3.53-1.26,7.26-1.96,11.41Zm-229.61,47.46c.29-58.33-46.57-105.34-105.08-105.41-58.16-.07-105.39,47.17-105.32,105.33.07,56.74,47.94,104.1,105.23,104.11,57.6,0,104.88-46.77,105.17-104.03Zm587.3-105.4c-58.44-.06-105.33,46.81-105.27,105.24.06,57.07,47.47,104.1,105.01,104.17,57.3.07,104.96-46.91,105.43-103.94.48-57.84-46.97-105.42-105.18-105.48Z"/>
  <path d="m279.26,220.31c-130.43,0-78.98,0-209.41,0-4.76,0-9.53.17-14.28-.09-19.83-1.09-33.97-14.98-34.05-33.27-.08-17.71,13.26-31.75,32.23-33.65,4.72-.47,9.51-.27,14.27-.27,262.76-.01,343.64-.02,606.4.03,6.17,0,12.44-.04,18.48,1.03,16.72,2.96,27.75,16.59,27.53,33.17-.22,16.48-11.82,29.96-28.51,32.44-5.6.83-11.39.59-17.1.6-131.86.03-263.71.02-395.57.02Z"/>
  <path d="m519.31,271.51c99.93,0,199.87-.27,299.8.41,10.14.07,21.66,3.84,29.99,9.58,10.4,7.16,12.72,19.82,9.19,32.27-3.67,12.93-12.32,21.32-25.74,23.84-5.09.96-10.42.88-15.64.88-198.92.04-397.84.03-596.75.03-2.38,0-4.76.05-7.14-.05-20.78-.81-35.46-14.48-35.65-33.17-.2-19.27,14.85-33.66,36.42-33.7,101.84-.17,203.68-.08,305.51-.09Z"/>
  <path d="m300.81,467.44c-85.2,0-170.41,0-255.61-.02-5.23,0-10.52.16-15.68-.51C12.43,464.71-.09,450.49,0,433.83c.09-16.65,12.78-30.95,29.66-33.11,4.22-.54,8.55-.35,12.83-.35,173.26-.01,346.52-.04,519.79.08,6.56,0,13.47.37,19.62,2.4,14.8,4.87,23.18,19.13,21.58,34.69-1.53,14.84-12.24,26.61-27.13,29.07-5.59.92-11.38.81-17.08.81-86.15.05-172.31.03-258.46.03Z"/>
</svg>