<?xml version="1.0" encoding="iso-8859-1"?>
<!-- Generator: Adobe Illustrator 18.0.0, SVG Export Plug-In . SVG Version: 6.00 Build 0)  -->
<!DOCTYPE svg PUBLIC "-//W3C//DTD SVG 1.1//EN" "http://www.w3.org/Graphics/SVG/1.1/DTD/svg11.dtd">
<svg version="1.1" id="Capa_1" xmlns="http://www.w3.org/2000/svg" xmlns:xlink="http://www.w3.org/1999/xlink" x="0px" y="0px"
	 viewBox="0 0 490 490" style="enable-background:new 0 0 490 490;" xml:space="preserve">
<g>
	<path d="M433.646,196.908c-32.156-50.697-88.41-81.862-148.732-81.862c-60.094,0-116.149,30.929-148.365,81.286l-49.18,0.002
		C39.193,196.335,0,235.528,0,283.703c0,28.202,22.943,51.146,51.145,51.146h24.042c3.907,22.742,23.756,40.105,47.595,40.105
		s43.688-17.364,47.595-40.105h149.247c3.907,22.742,23.756,40.105,47.595,40.105s43.688-17.364,47.595-40.105h24.042
		c28.201,0,51.145-22.943,51.145-51.146v-22.367C490,228.426,465.413,201.15,433.646,196.908z M385.524,326.648
		c0,10.094-8.212,18.306-18.306,18.306s-18.306-8.212-18.306-18.306s8.212-18.306,18.306-18.306S385.524,316.555,385.524,326.648z
		 M141.087,326.648c0,10.094-8.212,18.306-18.306,18.306s-18.306-8.212-18.306-18.306s8.212-18.306,18.306-18.306
		S141.087,316.555,141.087,326.648z M367.219,278.343c-18.794,0-35.104,10.796-43.086,26.506H165.867
		c-7.981-15.71-24.291-26.506-43.086-26.506s-35.104,10.796-43.086,26.506H51.145c-11.659,0-21.145-9.486-21.145-21.146
		c0-31.633,25.735-57.368,57.369-57.369l57.632-0.002c5.384,0,10.355-2.887,13.025-7.563
		c25.964-45.475,74.584-73.724,126.887-73.724c52.304,0,100.925,28.251,126.889,73.728c2.67,4.676,7.642,7.563,13.026,7.563H425
		c19.299,0,35,15.701,35,35v22.367c0,11.659-9.485,21.146-21.145,21.146h-28.551C402.323,289.139,386.013,278.343,367.219,278.343z"
		/>
	<path d="M278.674,266.06c-8.924,6.034-20.125,7.286-29.974,3.349c-7.89-3.155-14.105-9.259-17.504-17.187
		c-3.398-7.929-3.532-16.64-0.377-24.528c2.051-5.128-0.443-10.948-5.571-12.999c-5.128-2.049-10.947,0.442-12.999,5.571
		c-5.139,12.85-4.938,26.997,0.564,39.836c5.504,12.838,15.611,22.738,28.46,27.877c6.192,2.477,12.708,3.695,19.204,3.695
		c10.301,0,20.555-3.065,29.399-9.046c4.575-3.094,5.776-9.311,2.683-13.886C289.465,264.167,283.249,262.969,278.674,266.06z"/>
	<path d="M283.314,172.764c-16.01-6.403-34.179-4.402-48.602,5.352c-4.575,3.094-5.776,9.311-2.683,13.886
		c3.096,4.575,9.312,5.775,13.886,2.683c8.922-6.033,20.128-7.288,29.972-3.35c16.432,6.571,24.453,25.285,17.883,41.717
		c-2.051,5.128,0.444,10.947,5.572,12.998c1.218,0.487,2.474,0.718,3.71,0.718c3.969-0.001,7.725-2.38,9.288-6.29
		C323.006,213.806,309.985,183.431,283.314,172.764z"/>
</g>
<g>
</g>
<g>
</g>
<g>
</g>
<g>
</g>
<g>
</g>
<g>
</g>
<g>
</g>
<g>
</g>
<g>
</g>
<g>
</g>
<g>
</g>
<g>
</g>
<g>
</g>
<g>
</g>
<g>
</g>
</svg>
