<?xml version="1.0" encoding="iso-8859-1"?>
<!-- Generator: Adobe Illustrator 19.0.0, SVG Export Plug-In . SVG Version: 6.00 Build 0)  -->
<svg version="1.1" id="Layer_1" xmlns="http://www.w3.org/2000/svg" xmlns:xlink="http://www.w3.org/1999/xlink" x="0px" y="0px"
	 viewBox="0 0 512 512" style="enable-background:new 0 0 512 512;" xml:space="preserve">
<g transform="translate(1 1)">
	<g>
		<g>
			<path d="M442.733,84.333c14.507,0,25.6-11.093,25.6-25.6V24.6c0-14.507-11.093-25.6-25.6-25.6H67.267
				c-14.507,0-25.6,11.093-25.6,25.6v34.133c0,14.507,11.093,25.6,25.6,25.6v153.6c0,3.016,0.486,5.881,1.376,8.533h-1.376
				c-14.507,0-25.6,11.093-25.6,25.6V306.2c0,14.507,11.093,25.6,25.6,25.6v153.6c0,14.507,11.093,25.6,25.6,25.6h324.267
				c14.507,0,25.6-11.093,25.6-25.6V331.8c14.507,0,25.6-11.093,25.6-25.6v-34.133c0-14.507-11.093-25.6-25.6-25.6h-1.376
				c0.89-2.652,1.376-5.517,1.376-8.533V84.333z M58.733,58.733V24.6c0-5.12,3.413-8.533,8.533-8.533h375.467
				c5.12,0,8.533,3.413,8.533,8.533v34.133c0,5.12-3.413,8.533-8.533,8.533H434.2H75.8h-8.533
				C62.147,67.267,58.733,63.853,58.733,58.733z M425.667,485.4c0,5.12-3.413,8.533-8.533,8.533H92.867
				c-5.12,0-8.533-3.413-8.533-8.533V331.8h341.333V485.4z M451.267,272.067V306.2c0,5.12-3.413,8.533-8.533,8.533H434.2H75.8
				h-8.533c-5.12,0-8.533-3.413-8.533-8.533v-34.133c0-5.12,3.413-8.533,8.533-8.533h25.6h324.267h25.6
				C447.853,263.533,451.267,266.947,451.267,272.067z M92.867,246.467c-5.12,0-8.533-3.413-8.533-8.533v-153.6h341.333v153.6
				c0,5.12-3.413,8.533-8.533,8.533H92.867z"/>
			<path d="M278.04,101.4h-45.227c-14.507,0-25.6,11.093-25.6,25.6s11.093,25.6,25.6,25.6h45.227c13.653,0,25.6-11.093,25.6-25.6
				S292.547,101.4,278.04,101.4z M277.187,135.533H231.96c-5.12,0-8.533-3.413-8.533-8.533s3.413-8.533,8.533-8.533h45.227
				c5.12,0,8.533,3.413,8.533,8.533S282.307,135.533,277.187,135.533z"/>
			<path d="M232.813,400.067h45.227c13.653,0,25.6-11.093,25.6-25.6c0-14.507-11.093-25.6-25.6-25.6h-45.227
				c-14.507,0-25.6,11.093-25.6,25.6C207.213,388.973,218.307,400.067,232.813,400.067z M231.96,365.933h45.227
				c5.12,0,8.533,3.413,8.533,8.533S282.307,383,277.187,383H231.96c-5.12,0-8.533-3.413-8.533-8.533S226.84,365.933,231.96,365.933
				z"/>
			<path d="M152.6,169.667h-42.667c-5.12,0-8.533,3.413-8.533,8.533s3.413,8.533,8.533,8.533H152.6c5.12,0,8.533-3.413,8.533-8.533
				S157.72,169.667,152.6,169.667z"/>
			<path d="M135.533,203.8h-25.6c-5.12,0-8.533,3.413-8.533,8.533c0,5.12,3.413,8.533,8.533,8.533h25.6
				c5.12,0,8.533-3.413,8.533-8.533C144.067,207.213,140.653,203.8,135.533,203.8z"/>
			<path d="M109.933,434.2H152.6c5.12,0,8.533-3.413,8.533-8.533s-3.413-8.533-8.533-8.533h-42.667c-5.12,0-8.533,3.413-8.533,8.533
				S104.813,434.2,109.933,434.2z"/>
			<path d="M109.933,468.333h25.6c5.12,0,8.533-3.413,8.533-8.533c0-5.12-3.413-8.533-8.533-8.533h-25.6
				c-5.12,0-8.533,3.413-8.533,8.533C101.4,464.92,104.813,468.333,109.933,468.333z"/>
		</g>
	</g>
</g>
<g>
</g>
<g>
</g>
<g>
</g>
<g>
</g>
<g>
</g>
<g>
</g>
<g>
</g>
<g>
</g>
<g>
</g>
<g>
</g>
<g>
</g>
<g>
</g>
<g>
</g>
<g>
</g>
<g>
</g>
</svg>
